<?xml version="1.0" encoding="UTF-8"?>
<!DOCTYPE svg PUBLIC "-//W3C//DTD SVG 1.1//EN" "http://www.w3.org/Graphics/SVG/1.1/DTD/svg11.dtd">
<!-- Creator: CorelDRAW X7 -->
<svg xmlns="http://www.w3.org/2000/svg" xml:space="preserve" width="297mm" height="210mm" version="1.1" style="shape-rendering:geometricPrecision; text-rendering:geometricPrecision; image-rendering:optimizeQuality; fill-rule:evenodd; clip-rule:evenodd"
viewBox="0 0 29700 21000"
 xmlns:xlink="http://www.w3.org/1999/xlink">
 <defs>
  <style type="text/css">
   <![CDATA[
    .str0 {stroke:#BD8D4E;stroke-width:20}
    .fil1 {fill:none}
    .fil0 {fill:#FFBB02}
   ]]>
  </style>
 </defs>
 <g id="Слой_x0020_1">
  <metadata id="CorelCorpID_0Corel-Layer"/>
  <rect class="fil0" x="1372" y="4737" width="26997" height="11521"/>
  <polyline class="fil1 str0" points="28369,5808 28032,5614 28032,5225 28369,5031 "/>
  <path class="fil1 str0" d="M1372 5131l337 -195 0 -194 -337 -5m445 5l674 0 0 194 -337 195 -337 -195 0 -194zm783 0l674 0 0 194 -337 195 -337 -195 0 -194zm783 0l673 0 0 194 -337 195 -336 -195 0 -194zm782 0l674 0 0 194 -337 195 -337 -195 0 -194zm783 0l673 0 0 194 -337 195 -336 -195 0 -194zm782 0l674 0 0 194 -337 195 -337 -195 0 -194zm783 0l673 0 0 194 -337 195 -336 -195 0 -194zm782 0l674 0 0 194 -337 195 -337 -195 0 -194zm783 0l673 0 0 194 -336 195 -337 -195 0 -194zm782 0l674 0 0 194 -337 195 -337 -195 0 -194zm783 0l673 0 0 194 -336 195 -337 -195 0 -194zm782 0l674 0 0 194 -337 195 -337 -195 0 -194zm783 0l673 0 0 194 -336 195 -337 -195 0 -194zm782 0l674 0 0 194 -337 195 -337 -195 0 -194zm783 0l674 0 0 194 -337 195 -337 -195 0 -194zm782 0l674 0 0 194 -337 195 -337 -195 0 -194zm783 0l674 0 0 194 -337 195 -337 -195 0 -194zm782 0l674 0 0 194 -337 195 -337 -195 0 -194zm783 0l674 0 0 194 -337 195 -337 -195 0 -194zm783 0l673 0 0 194 -337 195 -336 -195 0 -194zm782 0l674 0 0 194 -337 195 -337 -195 0 -194zm783 0l673 0 0 194 -337 195 -336 -195 0 -194zm782 0l674 0 0 194 -337 195 -337 -195 0 -194zm783 0l673 0 0 194 -337 195 -336 -195 0 -194zm782 0l674 0 0 194 -337 195 -337 -195 0 -194zm783 0l673 0 0 194 -336 195 -337 -195 0 -194zm782 0l674 0 0 194 -337 195 -337 -195 0 -194zm783 0l673 0 0 194 -336 195 -337 -195 0 -194zm782 0l674 0 0 194 -337 195 -337 -195 0 -194zm783 0l673 0 0 194 -336 195 -337 -195 0 -194zm782 0l674 0 0 194 -337 195 -337 -195 0 -194zm783 0l674 0 0 194 -337 195 -337 -195 0 -194zm782 0l674 0 0 194 -337 195 -337 -195 0 -194zm783 0l674 0 0 194 -337 195 -337 -195 0 -194zm728 11521l-337 0 0 -195 337 -194m-446 389l-673 0 0 -195 336 -194 337 194 0 195zm-782 0l-674 0 0 -195 337 -194 337 194 0 195zm-783 0l-673 0 0 -195 336 -194 337 194 0 195zm-782 0l-674 0 0 -195 337 -194 337 194 0 195zm-783 0l-673 0 0 -195 336 -194 337 194 0 195zm-782 0l-674 0 0 -195 337 -194 337 194 0 195zm-783 0l-673 0 0 -195 336 -194 337 194 0 195zm-782 0l-674 0 0 -195 337 -194 337 194 0 195zm-783 0l-674 0 0 -195 337 -194 337 194 0 195zm-782 0l-674 0 0 -195 337 -194 337 194 0 195zm-783 0l-674 0 0 -195 337 -194 337 194 0 195zm-782 0l-674 0 0 -195 337 -194 337 194 0 195zm-783 0l-674 0 0 -195 337 -194 337 194 0 195zm-783 0l-673 0 0 -195 337 -194 336 194 0 195zm-782 0l-674 0 0 -195 337 -194 337 194 0 195zm-783 0l-673 0 0 -195 337 -194 336 194 0 195zm-782 0l-674 0 0 -195 337 -194 337 194 0 195zm-783 0l-673 0 0 -195 337 -194 336 194 0 195zm-782 0l-674 0 0 -195 337 -194 337 194 0 195zm-783 0l-673 0 0 -195 336 -194 337 194 0 195zm-782 0l-674 0 0 -195 337 -194 337 194 0 195zm-783 0l-673 0 0 -195 336 -194 337 194 0 195zm-782 0l-674 0 0 -195 337 -194 337 194 0 195zm-783 0l-673 0 0 -195 336 -194 337 194 0 195zm-782 0l-674 0 0 -195 337 -194 337 194 0 195zm-783 0l-674 0 0 -195 337 -194 337 194 0 195zm-782 0l-674 0 0 -195 337 -194 337 194 0 195zm-783 0l-674 0 0 -195 337 -194 337 194 0 195zm-782 0l-674 0 0 -195 337 -194 337 194 0 195zm-783 0l-674 0 0 -195 337 -194 337 194 0 195zm-783 0l-673 0 0 -195 337 -194 336 194 0 195zm-782 0l-674 0 0 -195 337 -194 337 194 0 195zm-783 0l-673 0 0 -195 337 -194 336 194 0 195zm-782 0l-674 0 0 -195 337 -194 337 194 0 195zm-728 -1067l337 194 0 389 -337 195m26269 -584l0 389 337 195 337 -195 0 -389 -337 -194 -337 194zm-783 389l337 195 337 -195 0 -389 -337 -194 -337 194 0 389zm392 -1066l0 389 336 194 337 -194 0 -389 -337 -195 -336 195zm-783 389l337 194 337 -194 0 -389 -337 -195 -337 195 0 389zm1174 -1067l0 389 337 194 337 -194 0 -389 -337 -194 -337 194zm-783 389l337 194 337 -194 0 -389 -337 -194 -337 194 0 389zm392 -1067l0 389 336 195 337 -195 0 -389 -337 -194 -336 194zm-783 389l337 195 337 -195 0 -389 -337 -194 -337 194 0 389zm1174 -1066l0 389 337 194 337 -194 0 -389 -337 -195 -337 195zm-783 389l337 194 337 -194 0 -389 -337 -195 -337 195 0 389zm392 -1067l0 389 336 194 337 -194 0 -389 -337 -194 -336 194zm-783 389l337 194 337 -194 0 -389 -337 -194 -337 194 0 389zm1174 -1067l0 389 337 195 337 -195 0 -389 -337 -194 -337 194zm-783 389l337 195 337 -195 0 -389 -337 -194 -337 194 0 389zm392 -1066l0 389 336 194 337 -194 0 -389 -337 -195 -336 195zm-783 389l337 194 337 -194 0 -389 -337 -195 -337 195 0 389zm1174 -1067l0 389 337 194 337 -194 0 -389 -337 -195 -337 195zm-783 389l337 194 337 -194 0 -389 -337 -195 -337 195 0 389zm392 -1067l0 389 336 195 337 -195 0 -389 -337 -194 -336 194zm-783 389l337 195 337 -195 0 -389 -337 -194 -337 194 0 389zm1174 -1066l0 388 337 195 337 -195 0 -388 -337 -195 -337 195zm-783 388l337 195 337 -195 0 -388 -337 -195 -337 195 0 388zm392 -1066l0 389 336 194 337 -194 0 -389 -337 -195 -336 195zm-783 389l337 194 337 -194 0 -389 -337 -195 -337 195 0 389zm1174 -1067l0 389 337 195 337 -195 0 -389 -337 -194 -337 194zm-783 389l337 195 337 -195 0 -389 -337 -194 -337 194 0 389zm392 -1067l0 389 336 195 337 -195 0 -389 -337 -194 -336 194zm-783 389l337 195 337 -195 0 -389 -337 -194 -337 194 0 389zm1174 -1066l0 389 337 194 337 -194 0 -389 -337 -195 -337 195zm-783 389l337 194 337 -194 0 -389 -337 -195 -337 195 0 389zm392 -1067l0 389 336 194 337 -194 0 -389 -337 -194 -336 194zm-783 389l337 194 337 -194 0 -389 -337 -194 -337 194 0 389zm-391 9776l0 389 337 195 337 -195 0 -389 -337 -194 -337 194zm-783 0l0 389 337 195 337 -195 0 -389 -337 -194 -337 194zm-782 389l337 195 336 -195 0 -389 -336 -194 -337 194 0 389zm1174 -1066l0 389 336 194 337 -194 0 -389 -337 -195 -336 195zm-783 0l0 389 337 194 337 -194 0 -389 -337 -195 -337 195zm-782 389l336 194 337 -194 0 -389 -337 -195 -336 195 0 389zm1956 -1067l0 389 337 194 337 -194 0 -389 -337 -194 -337 194zm-783 0l0 389 337 194 337 -194 0 -389 -337 -194 -337 194zm-782 389l337 194 336 -194 0 -389 -336 -194 -337 194 0 389zm1174 -1067l0 389 336 195 337 -195 0 -389 -337 -194 -336 194zm-783 0l0 389 337 195 337 -195 0 -389 -337 -194 -337 194zm-782 389l336 195 337 -195 0 -389 -337 -194 -336 194 0 389zm1956 -1066l0 389 337 194 337 -194 0 -389 -337 -195 -337 195zm-783 0l0 389 337 194 337 -194 0 -389 -337 -195 -337 195zm-782 389l337 194 336 -194 0 -389 -336 -195 -337 195 0 389zm1174 -1067l0 389 336 194 337 -194 0 -389 -337 -194 -336 194zm-783 0l0 389 337 194 337 -194 0 -389 -337 -194 -337 194zm-782 389l336 194 337 -194 0 -389 -337 -194 -336 194 0 389zm1956 -1067l0 389 337 195 337 -195 0 -389 -337 -194 -337 194zm-783 0l0 389 337 195 337 -195 0 -389 -337 -194 -337 194zm-782 389l337 195 336 -195 0 -389 -336 -194 -337 194 0 389zm1174 -1066l0 389 336 194 337 -194 0 -389 -337 -195 -336 195zm-783 0l0 389 337 194 337 -194 0 -389 -337 -195 -337 195zm-782 389l336 194 337 -194 0 -389 -337 -195 -336 195 0 389zm1956 -1067l0 389 337 194 337 -194 0 -389 -337 -195 -337 195zm-783 0l0 389 337 194 337 -194 0 -389 -337 -195 -337 195zm-782 389l337 194 336 -194 0 -389 -336 -195 -337 195 0 389zm1174 -1067l0 389 336 195 337 -195 0 -389 -337 -194 -336 194zm-783 0l0 389 337 195 337 -195 0 -389 -337 -194 -337 194zm-782 389l336 195 337 -195 0 -389 -337 -194 -336 194 0 389zm1956 -1066l0 388 337 195 337 -195 0 -388 -337 -195 -337 195zm-783 0l0 388 337 195 337 -195 0 -388 -337 -195 -337 195zm-782 388l337 195 336 -195 0 -388 -336 -195 -337 195 0 388zm1174 -1066l0 389 336 194 337 -194 0 -389 -337 -195 -336 195zm-783 0l0 389 337 194 337 -194 0 -389 -337 -195 -337 195zm-782 389l336 194 337 -194 0 -389 -337 -195 -336 195 0 389zm1956 -1067l0 389 337 195 337 -195 0 -389 -337 -194 -337 194zm-783 0l0 389 337 195 337 -195 0 -389 -337 -194 -337 194zm-782 389l337 195 336 -195 0 -389 -336 -194 -337 194 0 389zm1174 -1067l0 389 336 195 337 -195 0 -389 -337 -194 -336 194zm-783 0l0 389 337 195 337 -195 0 -389 -337 -194 -337 194zm-782 389l336 195 337 -195 0 -389 -337 -194 -336 194 0 389zm1956 -1066l0 389 337 194 337 -194 0 -389 -337 -195 -337 195zm-783 0l0 389 337 194 337 -194 0 -389 -337 -195 -337 195zm-782 389l337 194 336 -194 0 -389 -336 -195 -337 195 0 389zm1174 -1067l0 389 336 194 337 -194 0 -389 -337 -194 -336 194zm-783 0l0 389 337 194 337 -194 0 -389 -337 -194 -337 194zm-782 389l336 194 337 -194 0 -389 -337 -194 -336 194 0 389zm-392 9776l0 389 337 195 337 -195 0 -389 -337 -194 -337 194zm-782 0l0 389 337 195 336 -195 0 -389 -336 -194 -337 194zm-783 389l337 195 337 -195 0 -389 -337 -194 -337 194 0 389zm1174 -1066l0 389 337 194 337 -194 0 -389 -337 -195 -337 195zm-782 0l0 389 336 194 337 -194 0 -389 -337 -195 -336 195zm-783 389l337 194 337 -194 0 -389 -337 -195 -337 195 0 389zm1956 -1067l0 389 337 194 337 -194 0 -389 -337 -194 -337 194zm-782 0l0 389 337 194 336 -194 0 -389 -336 -194 -337 194zm-783 389l337 194 337 -194 0 -389 -337 -194 -337 194 0 389zm1174 -1067l0 389 337 195 337 -195 0 -389 -337 -194 -337 194zm-782 0l0 389 336 195 337 -195 0 -389 -337 -194 -336 194zm-783 389l337 195 337 -195 0 -389 -337 -194 -337 194 0 389zm1956 -1066l0 389 337 194 337 -194 0 -389 -337 -195 -337 195zm-782 0l0 389 337 194 336 -194 0 -389 -336 -195 -337 195zm-783 389l337 194 337 -194 0 -389 -337 -195 -337 195 0 389zm1174 -1067l0 389 337 194 337 -194 0 -389 -337 -194 -337 194zm-782 0l0 389 336 194 337 -194 0 -389 -337 -194 -336 194zm-783 389l337 194 337 -194 0 -389 -337 -194 -337 194 0 389zm1956 -1067l0 389 337 195 337 -195 0 -389 -337 -194 -337 194zm-782 0l0 389 337 195 336 -195 0 -389 -336 -194 -337 194zm-783 389l337 195 337 -195 0 -389 -337 -194 -337 194 0 389zm1174 -1066l0 389 337 194 337 -194 0 -389 -337 -195 -337 195zm-782 0l0 389 336 194 337 -194 0 -389 -337 -195 -336 195zm-783 389l337 194 337 -194 0 -389 -337 -195 -337 195 0 389zm1956 -1067l0 389 337 194 337 -194 0 -389 -337 -195 -337 195zm-782 0l0 389 337 194 336 -194 0 -389 -336 -195 -337 195zm-783 389l337 194 337 -194 0 -389 -337 -195 -337 195 0 389zm1174 -1067l0 389 337 195 337 -195 0 -389 -337 -194 -337 194zm-782 0l0 389 336 195 337 -195 0 -389 -337 -194 -336 194zm-783 389l337 195 337 -195 0 -389 -337 -194 -337 194 0 389zm1956 -1066l0 388 337 195 337 -195 0 -388 -337 -195 -337 195zm-782 0l0 388 337 195 336 -195 0 -388 -336 -195 -337 195zm-783 388l337 195 337 -195 0 -388 -337 -195 -337 195 0 388zm1174 -1066l0 389 337 194 337 -194 0 -389 -337 -195 -337 195zm-782 0l0 389 336 194 337 -194 0 -389 -337 -195 -336 195zm-783 389l337 194 337 -194 0 -389 -337 -195 -337 195 0 389zm1956 -1067l0 389 337 195 337 -195 0 -389 -337 -194 -337 194zm-782 0l0 389 337 195 336 -195 0 -389 -336 -194 -337 194zm-783 389l337 195 337 -195 0 -389 -337 -194 -337 194 0 389zm1174 -1067l0 389 337 195 337 -195 0 -389 -337 -194 -337 194zm-782 0l0 389 336 195 337 -195 0 -389 -337 -194 -336 194zm-783 389l337 195 337 -195 0 -389 -337 -194 -337 194 0 389zm1956 -1066l0 389 337 194 337 -194 0 -389 -337 -195 -337 195zm-782 0l0 389 337 194 336 -194 0 -389 -336 -195 -337 195zm-783 389l337 194 337 -194 0 -389 -337 -195 -337 195 0 389zm1174 -1067l0 389 337 194 337 -194 0 -389 -337 -194 -337 194zm-782 0l0 389 336 194 337 -194 0 -389 -337 -194 -336 194zm-783 389l337 194 337 -194 0 -389 -337 -194 -337 194 0 389zm-391 9776l0 389 337 195 336 -195 0 -389 -336 -194 -337 194zm-783 0l0 389 337 195 337 -195 0 -389 -337 -194 -337 194zm-782 389l336 195 337 -195 0 -389 -337 -194 -336 194 0 389zm1173 -1066l0 389 337 194 337 -194 0 -389 -337 -195 -337 195zm-782 0l0 389 337 194 337 -194 0 -389 -337 -195 -337 195zm-783 389l337 194 337 -194 0 -389 -337 -195 -337 195 0 389zm1957 -1067l0 389 337 194 336 -194 0 -389 -336 -194 -337 194zm-783 0l0 389 337 194 337 -194 0 -389 -337 -194 -337 194zm-782 389l336 194 337 -194 0 -389 -337 -194 -336 194 0 389zm1173 -1067l0 389 337 195 337 -195 0 -389 -337 -194 -337 194zm-782 0l0 389 337 195 337 -195 0 -389 -337 -194 -337 194zm-783 389l337 195 337 -195 0 -389 -337 -194 -337 194 0 389zm1957 -1066l0 389 337 194 336 -194 0 -389 -336 -195 -337 195zm-783 0l0 389 337 194 337 -194 0 -389 -337 -195 -337 195zm-782 389l336 194 337 -194 0 -389 -337 -195 -336 195 0 389zm1173 -1067l0 389 337 194 337 -194 0 -389 -337 -194 -337 194zm-782 0l0 389 337 194 337 -194 0 -389 -337 -194 -337 194zm-783 389l337 194 337 -194 0 -389 -337 -194 -337 194 0 389zm1957 -1067l0 389 337 195 336 -195 0 -389 -336 -194 -337 194zm-783 0l0 389 337 195 337 -195 0 -389 -337 -194 -337 194zm-782 389l336 195 337 -195 0 -389 -337 -194 -336 194 0 389zm1173 -1066l0 389 337 194 337 -194 0 -389 -337 -195 -337 195zm-782 0l0 389 337 194 337 -194 0 -389 -337 -195 -337 195zm-783 389l337 194 337 -194 0 -389 -337 -195 -337 195 0 389zm1957 -1067l0 389 337 194 336 -194 0 -389 -336 -195 -337 195zm-783 0l0 389 337 194 337 -194 0 -389 -337 -195 -337 195zm-782 389l336 194 337 -194 0 -389 -337 -195 -336 195 0 389zm1173 -1067l0 389 337 195 337 -195 0 -389 -337 -194 -337 194zm-782 0l0 389 337 195 337 -195 0 -389 -337 -194 -337 194zm-783 389l337 195 337 -195 0 -389 -337 -194 -337 194 0 389zm1957 -1066l0 388 337 195 336 -195 0 -388 -336 -195 -337 195zm-783 0l0 388 337 195 337 -195 0 -388 -337 -195 -337 195zm-782 388l336 195 337 -195 0 -388 -337 -195 -336 195 0 388zm1173 -1066l0 389 337 194 337 -194 0 -389 -337 -195 -337 195zm-782 0l0 389 337 194 337 -194 0 -389 -337 -195 -337 195zm-783 389l337 194 337 -194 0 -389 -337 -195 -337 195 0 389zm1957 -1067l0 389 337 195 336 -195 0 -389 -336 -194 -337 194zm-783 0l0 389 337 195 337 -195 0 -389 -337 -194 -337 194zm-782 389l336 195 337 -195 0 -389 -337 -194 -336 194 0 389zm1173 -1067l0 389 337 195 337 -195 0 -389 -337 -194 -337 194zm-782 0l0 389 337 195 337 -195 0 -389 -337 -194 -337 194zm-783 389l337 195 337 -195 0 -389 -337 -194 -337 194 0 389zm1957 -1066l0 389 337 194 336 -194 0 -389 -336 -195 -337 195zm-783 0l0 389 337 194 337 -194 0 -389 -337 -195 -337 195zm-782 389l336 194 337 -194 0 -389 -337 -195 -336 195 0 389zm1173 -1067l0 389 337 194 337 -194 0 -389 -337 -194 -337 194zm-782 0l0 389 337 194 337 -194 0 -389 -337 -194 -337 194zm-783 389l337 194 337 -194 0 -389 -337 -194 -337 194 0 389zm-391 9776l0 389 337 195 337 -195 0 -389 -337 -194 -337 194zm-782 0l0 389 336 195 337 -195 0 -389 -337 -194 -336 194zm-783 389l337 195 337 -195 0 -389 -337 -194 -337 194 0 389zm1174 -1066l0 389 337 194 337 -194 0 -389 -337 -195 -337 195zm-783 0l0 389 337 194 337 -194 0 -389 -337 -195 -337 195zm-782 389l337 194 336 -194 0 -389 -336 -195 -337 195 0 389zm1956 -1067l0 389 337 194 337 -194 0 -389 -337 -194 -337 194zm-782 0l0 389 336 194 337 -194 0 -389 -337 -194 -336 194zm-783 389l337 194 337 -194 0 -389 -337 -194 -337 194 0 389zm1174 -1067l0 389 337 195 337 -195 0 -389 -337 -194 -337 194zm-783 0l0 389 337 195 337 -195 0 -389 -337 -194 -337 194zm-782 389l337 195 336 -195 0 -389 -336 -194 -337 194 0 389zm1956 -1066l0 389 337 194 337 -194 0 -389 -337 -195 -337 195zm-782 0l0 389 336 194 337 -194 0 -389 -337 -195 -336 195zm-783 389l337 194 337 -194 0 -389 -337 -195 -337 195 0 389zm1174 -1067l0 389 337 194 337 -194 0 -389 -337 -194 -337 194zm-783 0l0 389 337 194 337 -194 0 -389 -337 -194 -337 194zm-782 389l337 194 336 -194 0 -389 -336 -194 -337 194 0 389zm1956 -1067l0 389 337 195 337 -195 0 -389 -337 -194 -337 194zm-782 0l0 389 336 195 337 -195 0 -389 -337 -194 -336 194zm-783 389l337 195 337 -195 0 -389 -337 -194 -337 194 0 389zm1174 -1066l0 389 337 194 337 -194 0 -389 -337 -195 -337 195zm-783 0l0 389 337 194 337 -194 0 -389 -337 -195 -337 195zm-782 389l337 194 336 -194 0 -389 -336 -195 -337 195 0 389zm1956 -1067l0 389 337 194 337 -194 0 -389 -337 -195 -337 195zm-782 0l0 389 336 194 337 -194 0 -389 -337 -195 -336 195zm-783 389l337 194 337 -194 0 -389 -337 -195 -337 195 0 389zm1174 -1067l0 389 337 195 337 -195 0 -389 -337 -194 -337 194zm-783 0l0 389 337 195 337 -195 0 -389 -337 -194 -337 194zm-782 389l337 195 336 -195 0 -389 -336 -194 -337 194 0 389zm1956 -1066l0 388 337 195 337 -195 0 -388 -337 -195 -337 195zm-782 0l0 388 336 195 337 -195 0 -388 -337 -195 -336 195zm-783 388l337 195 337 -195 0 -388 -337 -195 -337 195 0 388zm1174 -1066l0 389 337 194 337 -194 0 -389 -337 -195 -337 195zm-783 0l0 389 337 194 337 -194 0 -389 -337 -195 -337 195zm-782 389l337 194 336 -194 0 -389 -336 -195 -337 195 0 389zm1956 -1067l0 389 337 195 337 -195 0 -389 -337 -194 -337 194zm-782 0l0 389 336 195 337 -195 0 -389 -337 -194 -336 194zm-783 389l337 195 337 -195 0 -389 -337 -194 -337 194 0 389zm1174 -1067l0 389 337 195 337 -195 0 -389 -337 -194 -337 194zm-783 0l0 389 337 195 337 -195 0 -389 -337 -194 -337 194zm-782 389l337 195 336 -195 0 -389 -336 -194 -337 194 0 389zm1956 -1066l0 389 337 194 337 -194 0 -389 -337 -195 -337 195zm-782 0l0 389 336 194 337 -194 0 -389 -337 -195 -336 195zm-783 389l337 194 337 -194 0 -389 -337 -195 -337 195 0 389zm1174 -1067l0 389 337 194 337 -194 0 -389 -337 -194 -337 194zm-783 0l0 389 337 194 337 -194 0 -389 -337 -194 -337 194zm-782 389l337 194 336 -194 0 -389 -336 -194 -337 194 0 389zm-391 9776l0 389 336 195 337 -195 0 -389 -337 -194 -336 194zm-783 0l0 389 337 195 337 -195 0 -389 -337 -194 -337 194zm-783 389l337 195 337 -195 0 -389 -337 -194 -337 194 0 389zm1174 -1066l0 389 337 194 337 -194 0 -389 -337 -195 -337 195zm-782 0l0 389 337 194 336 -194 0 -389 -336 -195 -337 195zm-783 389l337 194 337 -194 0 -389 -337 -195 -337 195 0 389zm1957 -1067l0 389 336 194 337 -194 0 -389 -337 -194 -336 194zm-783 0l0 389 337 194 337 -194 0 -389 -337 -194 -337 194zm-783 389l337 194 337 -194 0 -389 -337 -194 -337 194 0 389zm1174 -1067l0 389 337 195 337 -195 0 -389 -337 -194 -337 194zm-782 0l0 389 337 195 336 -195 0 -389 -336 -194 -337 194zm-783 389l337 195 337 -195 0 -389 -337 -194 -337 194 0 389zm1957 -1066l0 389 336 194 337 -194 0 -389 -337 -195 -336 195zm-783 0l0 389 337 194 337 -194 0 -389 -337 -195 -337 195zm-783 389l337 194 337 -194 0 -389 -337 -195 -337 195 0 389zm1174 -1067l0 389 337 194 337 -194 0 -389 -337 -194 -337 194zm-782 0l0 389 337 194 336 -194 0 -389 -336 -194 -337 194zm-783 389l337 194 337 -194 0 -389 -337 -194 -337 194 0 389zm1957 -1067l0 389 336 195 337 -195 0 -389 -337 -194 -336 194zm-783 0l0 389 337 195 337 -195 0 -389 -337 -194 -337 194zm-783 389l337 195 337 -195 0 -389 -337 -194 -337 194 0 389zm1174 -1066l0 389 337 194 337 -194 0 -389 -337 -195 -337 195zm-782 0l0 389 337 194 336 -194 0 -389 -336 -195 -337 195zm-783 389l337 194 337 -194 0 -389 -337 -195 -337 195 0 389zm1957 -1067l0 389 336 194 337 -194 0 -389 -337 -195 -336 195zm-783 0l0 389 337 194 337 -194 0 -389 -337 -195 -337 195zm-783 389l337 194 337 -194 0 -389 -337 -195 -337 195 0 389zm1174 -1067l0 389 337 195 337 -195 0 -389 -337 -194 -337 194zm-782 0l0 389 337 195 336 -195 0 -389 -336 -194 -337 194zm-783 389l337 195 337 -195 0 -389 -337 -194 -337 194 0 389zm1957 -1066l0 388 336 195 337 -195 0 -388 -337 -195 -336 195zm-783 0l0 388 337 195 337 -195 0 -388 -337 -195 -337 195zm-783 388l337 195 337 -195 0 -388 -337 -195 -337 195 0 388zm1174 -1066l0 389 337 194 337 -194 0 -389 -337 -195 -337 195zm-782 0l0 389 337 194 336 -194 0 -389 -336 -195 -337 195zm-783 389l337 194 337 -194 0 -389 -337 -195 -337 195 0 389zm1957 -1067l0 389 336 195 337 -195 0 -389 -337 -194 -336 194zm-783 0l0 389 337 195 337 -195 0 -389 -337 -194 -337 194zm-783 389l337 195 337 -195 0 -389 -337 -194 -337 194 0 389zm1174 -1067l0 389 337 195 337 -195 0 -389 -337 -194 -337 194zm-782 0l0 389 337 195 336 -195 0 -389 -336 -194 -337 194zm-783 389l337 195 337 -195 0 -389 -337 -194 -337 194 0 389zm1957 -1066l0 389 336 194 337 -194 0 -389 -337 -195 -336 195zm-783 0l0 389 337 194 337 -194 0 -389 -337 -195 -337 195zm-783 389l337 194 337 -194 0 -389 -337 -195 -337 195 0 389zm1174 -1067l0 389 337 194 337 -194 0 -389 -337 -194 -337 194zm-782 0l0 389 337 194 336 -194 0 -389 -336 -194 -337 194zm-783 389l337 194 337 -194 0 -389 -337 -194 -337 194 0 389zm-391 9776l0 389 337 195 337 -195 0 -389 -337 -194 -337 194zm-783 0l0 389 337 195 337 -195 0 -389 -337 -194 -337 194zm-782 389l337 195 337 -195 0 -389 -337 -194 -337 194 0 389zm1174 -1066l0 389 337 194 336 -194 0 -389 -336 -195 -337 195zm-783 0l0 389 337 194 337 -194 0 -389 -337 -195 -337 195zm-782 389l336 194 337 -194 0 -389 -337 -195 -336 195 0 389zm1956 -1067l0 389 337 194 337 -194 0 -389 -337 -194 -337 194zm-783 0l0 389 337 194 337 -194 0 -389 -337 -194 -337 194zm-782 389l337 194 337 -194 0 -389 -337 -194 -337 194 0 389zm1174 -1067l0 389 337 195 336 -195 0 -389 -336 -194 -337 194zm-783 0l0 389 337 195 337 -195 0 -389 -337 -194 -337 194zm-782 389l336 195 337 -195 0 -389 -337 -194 -336 194 0 389zm1956 -1066l0 389 337 194 337 -194 0 -389 -337 -195 -337 195zm-783 0l0 389 337 194 337 -194 0 -389 -337 -195 -337 195zm-782 389l337 194 337 -194 0 -389 -337 -195 -337 195 0 389zm1174 -1067l0 389 337 194 336 -194 0 -389 -336 -194 -337 194zm-783 0l0 389 337 194 337 -194 0 -389 -337 -194 -337 194zm-782 389l336 194 337 -194 0 -389 -337 -194 -336 194 0 389zm1956 -1067l0 389 337 195 337 -195 0 -389 -337 -194 -337 194zm-783 0l0 389 337 195 337 -195 0 -389 -337 -194 -337 194zm-782 389l337 195 337 -195 0 -389 -337 -194 -337 194 0 389zm1174 -1066l0 389 337 194 336 -194 0 -389 -336 -195 -337 195zm-783 0l0 389 337 194 337 -194 0 -389 -337 -195 -337 195zm-782 389l336 194 337 -194 0 -389 -337 -195 -336 195 0 389zm1956 -1067l0 389 337 194 337 -194 0 -389 -337 -195 -337 195zm-783 0l0 389 337 194 337 -194 0 -389 -337 -195 -337 195zm-782 389l337 194 337 -194 0 -389 -337 -195 -337 195 0 389zm1174 -1067l0 389 337 195 336 -195 0 -389 -336 -194 -337 194zm-783 0l0 389 337 195 337 -195 0 -389 -337 -194 -337 194zm-782 389l336 195 337 -195 0 -389 -337 -194 -336 194 0 389zm1956 -1066l0 388 337 195 337 -195 0 -388 -337 -195 -337 195zm-783 0l0 388 337 195 337 -195 0 -388 -337 -195 -337 195zm-782 388l337 195 337 -195 0 -388 -337 -195 -337 195 0 388zm1174 -1066l0 389 337 194 336 -194 0 -389 -336 -195 -337 195zm-783 0l0 389 337 194 337 -194 0 -389 -337 -195 -337 195zm-782 389l336 194 337 -194 0 -389 -337 -195 -336 195 0 389zm1956 -1067l0 389 337 195 337 -195 0 -389 -337 -194 -337 194zm-783 0l0 389 337 195 337 -195 0 -389 -337 -194 -337 194zm-782 389l337 195 337 -195 0 -389 -337 -194 -337 194 0 389zm1174 -1067l0 389 337 195 336 -195 0 -389 -336 -194 -337 194zm-783 0l0 389 337 195 337 -195 0 -389 -337 -194 -337 194zm-782 389l336 195 337 -195 0 -389 -337 -194 -336 194 0 389zm1956 -1066l0 389 337 194 337 -194 0 -389 -337 -195 -337 195zm-783 0l0 389 337 194 337 -194 0 -389 -337 -195 -337 195zm-782 389l337 194 337 -194 0 -389 -337 -195 -337 195 0 389zm1174 -1067l0 389 337 194 336 -194 0 -389 -336 -194 -337 194zm-783 0l0 389 337 194 337 -194 0 -389 -337 -194 -337 194zm-782 389l336 194 337 -194 0 -389 -337 -194 -336 194 0 389zm-392 9776l0 389 337 195 337 -195 0 -389 -337 -194 -337 194zm-782 0l0 389 337 195 336 -195 0 -389 -336 -194 -337 194zm-783 389l337 195 337 -195 0 -389 -337 -194 -337 194 0 389zm1174 -1066l0 389 337 194 337 -194 0 -389 -337 -195 -337 195zm-782 0l0 389 336 194 337 -194 0 -389 -337 -195 -336 195zm-783 389l337 194 337 -194 0 -389 -337 -195 -337 195 0 389zm1956 -1067l0 389 337 194 337 -194 0 -389 -337 -194 -337 194zm-782 0l0 389 337 194 336 -194 0 -389 -336 -194 -337 194zm-783 389l337 194 337 -194 0 -389 -337 -194 -337 194 0 389zm1174 -1067l0 389 337 195 337 -195 0 -389 -337 -194 -337 194zm-782 0l0 389 336 195 337 -195 0 -389 -337 -194 -336 194zm-783 389l337 195 337 -195 0 -389 -337 -194 -337 194 0 389zm1956 -1066l0 389 337 194 337 -194 0 -389 -337 -195 -337 195zm-782 0l0 389 337 194 336 -194 0 -389 -336 -195 -337 195zm-783 389l337 194 337 -194 0 -389 -337 -195 -337 195 0 389zm1174 -1067l0 389 337 194 337 -194 0 -389 -337 -194 -337 194zm-782 0l0 389 336 194 337 -194 0 -389 -337 -194 -336 194zm-783 389l337 194 337 -194 0 -389 -337 -194 -337 194 0 389zm1956 -1067l0 389 337 195 337 -195 0 -389 -337 -194 -337 194zm-782 0l0 389 337 195 336 -195 0 -389 -336 -194 -337 194zm-783 389l337 195 337 -195 0 -389 -337 -194 -337 194 0 389zm1174 -1066l0 389 337 194 337 -194 0 -389 -337 -195 -337 195zm-782 0l0 389 336 194 337 -194 0 -389 -337 -195 -336 195zm-783 389l337 194 337 -194 0 -389 -337 -195 -337 195 0 389zm1956 -1067l0 389 337 194 337 -194 0 -389 -337 -195 -337 195zm-782 0l0 389 337 194 336 -194 0 -389 -336 -195 -337 195zm-783 389l337 194 337 -194 0 -389 -337 -195 -337 195 0 389zm1174 -1067l0 389 337 195 337 -195 0 -389 -337 -194 -337 194zm-782 0l0 389 336 195 337 -195 0 -389 -337 -194 -336 194zm-783 389l337 195 337 -195 0 -389 -337 -194 -337 194 0 389zm1956 -1066l0 388 337 195 337 -195 0 -388 -337 -195 -337 195zm-782 0l0 388 337 195 336 -195 0 -388 -336 -195 -337 195zm-783 388l337 195 337 -195 0 -388 -337 -195 -337 195 0 388zm1174 -1066l0 389 337 194 337 -194 0 -389 -337 -195 -337 195zm-782 0l0 389 336 194 337 -194 0 -389 -337 -195 -336 195zm-783 389l337 194 337 -194 0 -389 -337 -195 -337 195 0 389zm1956 -1067l0 389 337 195 337 -195 0 -389 -337 -194 -337 194zm-782 0l0 389 337 195 336 -195 0 -389 -336 -194 -337 194zm-783 389l337 195 337 -195 0 -389 -337 -194 -337 194 0 389zm1174 -1067l0 389 337 195 337 -195 0 -389 -337 -194 -337 194zm-782 0l0 389 336 195 337 -195 0 -389 -337 -194 -336 194zm-783 389l337 195 337 -195 0 -389 -337 -194 -337 194 0 389zm1956 -1066l0 389 337 194 337 -194 0 -389 -337 -195 -337 195zm-782 0l0 389 337 194 336 -194 0 -389 -336 -195 -337 195zm-783 389l337 194 337 -194 0 -389 -337 -195 -337 195 0 389zm1174 -1067l0 389 337 194 337 -194 0 -389 -337 -194 -337 194zm-782 0l0 389 336 194 337 -194 0 -389 -337 -194 -336 194zm-783 389l337 194 337 -194 0 -389 -337 -194 -337 194 0 389zm-391 9776l0 389 337 195 336 -195 0 -389 -336 -194 -337 194zm-783 0l0 389 337 195 337 -195 0 -389 -337 -194 -337 194zm-782 389l337 195 336 -195 0 -389 -336 -194 -337 194 0 389zm1174 -1066l0 389 336 194 337 -194 0 -389 -337 -195 -336 195zm-783 0l0 389 337 194 337 -194 0 -389 -337 -195 -337 195zm-783 389l337 194 337 -194 0 -389 -337 -195 -337 195 0 389zm1957 -1067l0 389 337 194 336 -194 0 -389 -336 -194 -337 194zm-783 0l0 389 337 194 337 -194 0 -389 -337 -194 -337 194zm-782 389l337 194 336 -194 0 -389 -336 -194 -337 194 0 389zm1174 -1067l0 389 336 195 337 -195 0 -389 -337 -194 -336 194zm-783 0l0 389 337 195 337 -195 0 -389 -337 -194 -337 194zm-783 389l337 195 337 -195 0 -389 -337 -194 -337 194 0 389zm1957 -1066l0 389 337 194 336 -194 0 -389 -336 -195 -337 195zm-783 0l0 389 337 194 337 -194 0 -389 -337 -195 -337 195zm-782 389l337 194 336 -194 0 -389 -336 -195 -337 195 0 389zm1174 -1067l0 389 336 194 337 -194 0 -389 -337 -194 -336 194zm-783 0l0 389 337 194 337 -194 0 -389 -337 -194 -337 194zm-783 389l337 194 337 -194 0 -389 -337 -194 -337 194 0 389zm1957 -1067l0 389 337 195 336 -195 0 -389 -336 -194 -337 194zm-783 0l0 389 337 195 337 -195 0 -389 -337 -194 -337 194zm-782 389l337 195 336 -195 0 -389 -336 -194 -337 194 0 389zm1174 -1066l0 389 336 194 337 -194 0 -389 -337 -195 -336 195zm-783 0l0 389 337 194 337 -194 0 -389 -337 -195 -337 195zm-783 389l337 194 337 -194 0 -389 -337 -195 -337 195 0 389zm1957 -1067l0 389 337 194 336 -194 0 -389 -336 -195 -337 195zm-783 0l0 389 337 194 337 -194 0 -389 -337 -195 -337 195zm-782 389l337 194 336 -194 0 -389 -336 -195 -337 195 0 389zm1174 -1067l0 389 336 195 337 -195 0 -389 -337 -194 -336 194zm-783 0l0 389 337 195 337 -195 0 -389 -337 -194 -337 194zm-783 389l337 195 337 -195 0 -389 -337 -194 -337 194 0 389zm1957 -1066l0 388 337 195 336 -195 0 -388 -336 -195 -337 195zm-783 0l0 388 337 195 337 -195 0 -388 -337 -195 -337 195zm-782 388l337 195 336 -195 0 -388 -336 -195 -337 195 0 388zm1174 -1066l0 389 336 194 337 -194 0 -389 -337 -195 -336 195zm-783 0l0 389 337 194 337 -194 0 -389 -337 -195 -337 195zm-783 389l337 194 337 -194 0 -389 -337 -195 -337 195 0 389zm1957 -1067l0 389 337 195 336 -195 0 -389 -336 -194 -337 194zm-783 0l0 389 337 195 337 -195 0 -389 -337 -194 -337 194zm-782 389l337 195 336 -195 0 -389 -336 -194 -337 194 0 389zm1174 -1067l0 389 336 195 337 -195 0 -389 -337 -194 -336 194zm-783 0l0 389 337 195 337 -195 0 -389 -337 -194 -337 194zm-783 389l337 195 337 -195 0 -389 -337 -194 -337 194 0 389zm1957 -1066l0 389 337 194 336 -194 0 -389 -336 -195 -337 195zm-783 0l0 389 337 194 337 -194 0 -389 -337 -195 -337 195zm-782 389l337 194 336 -194 0 -389 -336 -195 -337 195 0 389zm1174 -1067l0 389 336 194 337 -194 0 -389 -337 -194 -336 194zm-783 0l0 389 337 194 337 -194 0 -389 -337 -194 -337 194zm-783 389l337 194 337 -194 0 -389 -337 -194 -337 194 0 389zm-391 9776l0 389 337 195 337 -195 0 -389 -337 -194 -337 194zm-782 0l0 389 336 195 337 -195 0 -389 -337 -194 -336 194zm-783 389l337 195 337 -195 0 -389 -337 -194 -337 194 0 389zm1174 -1066l0 389 337 194 337 -194 0 -389 -337 -195 -337 195zm-783 0l0 389 337 194 337 -194 0 -389 -337 -195 -337 195zm-782 389l337 194 337 -194 0 -389 -337 -195 -337 195 0 389zm1956 -1067l0 389 337 194 337 -194 0 -389 -337 -194 -337 194zm-782 0l0 389 336 194 337 -194 0 -389 -337 -194 -336 194zm-783 389l337 194 337 -194 0 -389 -337 -194 -337 194 0 389zm1174 -1067l0 389 337 195 337 -195 0 -389 -337 -194 -337 194zm-783 0l0 389 337 195 337 -195 0 -389 -337 -194 -337 194zm-782 389l337 195 337 -195 0 -389 -337 -194 -337 194 0 389zm1956 -1066l0 389 337 194 337 -194 0 -389 -337 -195 -337 195zm-782 0l0 389 336 194 337 -194 0 -389 -337 -195 -336 195zm-783 389l337 194 337 -194 0 -389 -337 -195 -337 195 0 389zm1174 -1067l0 389 337 194 337 -194 0 -389 -337 -194 -337 194zm-783 0l0 389 337 194 337 -194 0 -389 -337 -194 -337 194zm-782 389l337 194 337 -194 0 -389 -337 -194 -337 194 0 389zm1956 -1067l0 389 337 195 337 -195 0 -389 -337 -194 -337 194zm-782 0l0 389 336 195 337 -195 0 -389 -337 -194 -336 194zm-783 389l337 195 337 -195 0 -389 -337 -194 -337 194 0 389zm1174 -1066l0 389 337 194 337 -194 0 -389 -337 -195 -337 195zm-783 0l0 389 337 194 337 -194 0 -389 -337 -195 -337 195zm-782 389l337 194 337 -194 0 -389 -337 -195 -337 195 0 389zm1956 -1067l0 389 337 194 337 -194 0 -389 -337 -195 -337 195zm-782 0l0 389 336 194 337 -194 0 -389 -337 -195 -336 195zm-783 389l337 194 337 -194 0 -389 -337 -195 -337 195 0 389zm1174 -1067l0 389 337 195 337 -195 0 -389 -337 -194 -337 194zm-783 0l0 389 337 195 337 -195 0 -389 -337 -194 -337 194zm-782 389l337 195 337 -195 0 -389 -337 -194 -337 194 0 389zm1956 -1066l0 388 337 195 337 -195 0 -388 -337 -195 -337 195zm-782 0l0 388 336 195 337 -195 0 -388 -337 -195 -336 195zm-783 388l337 195 337 -195 0 -388 -337 -195 -337 195 0 388zm1174 -1066l0 389 337 194 337 -194 0 -389 -337 -195 -337 195zm-783 0l0 389 337 194 337 -194 0 -389 -337 -195 -337 195zm-782 389l337 194 337 -194 0 -389 -337 -195 -337 195 0 389zm1956 -1067l0 389 337 195 337 -195 0 -389 -337 -194 -337 194zm-782 0l0 389 336 195 337 -195 0 -389 -337 -194 -336 194zm-783 389l337 195 337 -195 0 -389 -337 -194 -337 194 0 389zm1174 -1067l0 389 337 195 337 -195 0 -389 -337 -194 -337 194zm-783 0l0 389 337 195 337 -195 0 -389 -337 -194 -337 194zm-782 389l337 195 337 -195 0 -389 -337 -194 -337 194 0 389zm1956 -1066l0 389 337 194 337 -194 0 -389 -337 -195 -337 195zm-782 0l0 389 336 194 337 -194 0 -389 -337 -195 -336 195zm-783 389l337 194 337 -194 0 -389 -337 -195 -337 195 0 389zm1174 -1067l0 389 337 194 337 -194 0 -389 -337 -194 -337 194zm-783 0l0 389 337 194 337 -194 0 -389 -337 -194 -337 194zm-782 389l337 194 337 -194 0 -389 -337 -194 -337 194 0 389zm-391 9776l0 389 336 195 337 -195 0 -389 -337 -194 -336 194zm-783 0l0 389 337 195 337 -195 0 -389 -337 -194 -337 194zm-782 389l336 195 337 -195 0 -389 -337 -194 -336 194 0 389zm1173 -1066l0 389 337 194 337 -194 0 -389 -337 -195 -337 195zm-782 0l0 389 337 194 336 -194 0 -389 -336 -195 -337 195zm-783 389l337 194 337 -194 0 -389 -337 -195 -337 195 0 389zm1957 -1067l0 389 336 194 337 -194 0 -389 -337 -194 -336 194zm-783 0l0 389 337 194 337 -194 0 -389 -337 -194 -337 194zm-782 389l336 194 337 -194 0 -389 -337 -194 -336 194 0 389zm1173 -1067l0 389 337 195 337 -195 0 -389 -337 -194 -337 194zm-782 0l0 389 337 195 336 -195 0 -389 -336 -194 -337 194zm-783 389l337 195 337 -195 0 -389 -337 -194 -337 194 0 389zm1957 -1066l0 389 336 194 337 -194 0 -389 -337 -195 -336 195zm-783 0l0 389 337 194 337 -194 0 -389 -337 -195 -337 195zm-782 389l336 194 337 -194 0 -389 -337 -195 -336 195 0 389zm1173 -1067l0 389 337 194 337 -194 0 -389 -337 -194 -337 194zm-782 0l0 389 337 194 336 -194 0 -389 -336 -194 -337 194zm-783 389l337 194 337 -194 0 -389 -337 -194 -337 194 0 389zm1957 -1067l0 389 336 195 337 -195 0 -389 -337 -194 -336 194zm-783 0l0 389 337 195 337 -195 0 -389 -337 -194 -337 194zm-782 389l336 195 337 -195 0 -389 -337 -194 -336 194 0 389zm1173 -1066l0 389 337 194 337 -194 0 -389 -337 -195 -337 195zm-782 0l0 389 337 194 336 -194 0 -389 -336 -195 -337 195zm-783 389l337 194 337 -194 0 -389 -337 -195 -337 195 0 389zm1957 -1067l0 389 336 194 337 -194 0 -389 -337 -195 -336 195zm-783 0l0 389 337 194 337 -194 0 -389 -337 -195 -337 195zm-782 389l336 194 337 -194 0 -389 -337 -195 -336 195 0 389zm1173 -1067l0 389 337 195 337 -195 0 -389 -337 -194 -337 194zm-782 0l0 389 337 195 336 -195 0 -389 -336 -194 -337 194zm-783 389l337 195 337 -195 0 -389 -337 -194 -337 194 0 389zm1957 -1066l0 388 336 195 337 -195 0 -388 -337 -195 -336 195zm-783 0l0 388 337 195 337 -195 0 -388 -337 -195 -337 195zm-782 388l336 195 337 -195 0 -388 -337 -195 -336 195 0 388zm1173 -1066l0 389 337 194 337 -194 0 -389 -337 -195 -337 195zm-782 0l0 389 337 194 336 -194 0 -389 -336 -195 -337 195zm-783 389l337 194 337 -194 0 -389 -337 -195 -337 195 0 389zm1957 -1067l0 389 336 195 337 -195 0 -389 -337 -194 -336 194zm-783 0l0 389 337 195 337 -195 0 -389 -337 -194 -337 194zm-782 389l336 195 337 -195 0 -389 -337 -194 -336 194 0 389zm1173 -1067l0 389 337 195 337 -195 0 -389 -337 -194 -337 194zm-782 0l0 389 337 195 336 -195 0 -389 -336 -194 -337 194zm-783 389l337 195 337 -195 0 -389 -337 -194 -337 194 0 389zm1957 -1066l0 389 336 194 337 -194 0 -389 -337 -195 -336 195zm-783 0l0 389 337 194 337 -194 0 -389 -337 -195 -337 195zm-782 389l336 194 337 -194 0 -389 -337 -195 -336 195 0 389zm1173 -1067l0 389 337 194 337 -194 0 -389 -337 -194 -337 194zm-782 0l0 389 337 194 336 -194 0 -389 -336 -194 -337 194zm-783 389l337 194 337 -194 0 -389 -337 -194 -337 194 0 389zm-391 9776l0 389 337 195 337 -195 0 -389 -337 -194 -337 194zm-783 0l0 389 337 195 337 -195 0 -389 -337 -194 -337 194zm392 -677l0 389 337 194 336 -194 0 -389 -336 -195 -337 195zm-783 0l0 389 337 194 337 -194 0 -389 -337 -195 -337 195zm1174 -678l0 389 337 194 337 -194 0 -389 -337 -194 -337 194zm-783 0l0 389 337 194 337 -194 0 -389 -337 -194 -337 194zm392 -678l0 389 337 195 336 -195 0 -389 -336 -194 -337 194zm-783 0l0 389 337 195 337 -195 0 -389 -337 -194 -337 194zm1174 -677l0 389 337 194 337 -194 0 -389 -337 -195 -337 195zm-783 0l0 389 337 194 337 -194 0 -389 -337 -195 -337 195zm392 -678l0 389 337 194 336 -194 0 -389 -336 -194 -337 194zm-783 0l0 389 337 194 337 -194 0 -389 -337 -194 -337 194zm1174 -678l0 389 337 195 337 -195 0 -389 -337 -194 -337 194zm-783 0l0 389 337 195 337 -195 0 -389 -337 -194 -337 194zm392 -677l0 389 337 194 336 -194 0 -389 -336 -195 -337 195zm-783 0l0 389 337 194 337 -194 0 -389 -337 -195 -337 195zm1174 -678l0 389 337 194 337 -194 0 -389 -337 -195 -337 195zm-783 0l0 389 337 194 337 -194 0 -389 -337 -195 -337 195zm392 -678l0 389 337 195 336 -195 0 -389 -336 -194 -337 194zm-783 0l0 389 337 195 337 -195 0 -389 -337 -194 -337 194zm1174 -677l0 388 337 195 337 -195 0 -388 -337 -195 -337 195zm-783 0l0 388 337 195 337 -195 0 -388 -337 -195 -337 195zm392 -678l0 389 337 194 336 -194 0 -389 -336 -195 -337 195zm-783 0l0 389 337 194 337 -194 0 -389 -337 -195 -337 195zm1174 -678l0 389 337 195 337 -195 0 -389 -337 -194 -337 194zm-783 0l0 389 337 195 337 -195 0 -389 -337 -194 -337 194zm392 -678l0 389 337 195 336 -195 0 -389 -336 -194 -337 194zm-783 0l0 389 337 195 337 -195 0 -389 -337 -194 -337 194zm1174 -677l0 389 337 194 337 -194 0 -389 -337 -195 -337 195zm-783 0l0 389 337 194 337 -194 0 -389 -337 -195 -337 195zm392 -678l0 389 337 194 336 -194 0 -389 -336 -194 -337 194zm-783 0l0 389 337 194 337 -194 0 -389 -337 -194 -337 194z"/>
  <polyline class="fil1 str0" points="28369,7164 28032,6969 28032,6580 28369,6386 "/>
  <polyline class="fil1 str0" points="28369,8519 28032,8325 28032,7936 28369,7741 "/>
  <polyline class="fil1 str0" points="28369,9875 28032,9680 28032,9291 28369,9097 "/>
  <polyline class="fil1 str0" points="28369,11230 28032,11036 28032,10647 28369,10452 "/>
  <polyline class="fil1 str0" points="28369,12585 28032,12391 28032,12002 28369,11808 "/>
  <polyline class="fil1 str0" points="28369,13941 28032,13746 28032,13357 28369,13163 "/>
  <polyline class="fil1 str0" points="28369,15296 28032,15102 28032,14713 28369,14518 "/>
  <polyline class="fil1 str0" points="1372,6486 1709,6292 1709,5903 1372,5708 "/>
  <polyline class="fil1 str0" points="1372,7842 1709,7647 1709,7258 1372,7064 "/>
  <polyline class="fil1 str0" points="1372,9197 1709,9002 1709,8614 1372,8419 "/>
  <polyline class="fil1 str0" points="1372,10552 1709,10358 1709,9969 1372,9774 "/>
  <polyline class="fil1 str0" points="1372,11908 1709,11713 1709,11324 1372,11130 "/>
  <polyline class="fil1 str0" points="1372,13263 1709,13069 1709,12680 1372,12485 "/>
  <polyline class="fil1 str0" points="1372,14618 1709,14424 1709,14035 1372,13841 "/>
  <polyline class="fil1 str0" points="1372,15974 1709,15779 1709,15390 1372,15196 "/>
 </g>
</svg>
